<?xml version="1.0"?>
<svg xmlns="http://www.w3.org/2000/svg" xmlns:xlink="http://www.w3.org/1999/xlink" version="1.1" viewBox="0 0 192 192" width="50px" height="50px"><g fill="none" fill-rule="nonzero" stroke="none" stroke-width="1" stroke-linecap="butt" stroke-linejoin="miter" stroke-miterlimit="10" stroke-dasharray="" stroke-dashoffset="0" font-family="none" font-weight="none" font-size="none" text-anchor="none" style="mix-blend-mode: normal"><path d="M0,192v-192h192v192z" fill="none"/><g fill="#ffffff"><g id="surface1"><path d="M99.825,184.32c-48.705,0 -88.335,-39.615 -88.335,-88.32c0,-48.705 39.63,-88.32 88.335,-88.32c22.065,0 43.185,8.175 59.49,23.025l2.97,2.715l-29.13,29.13l-2.7,-2.31c-8.55,-7.32 -19.425,-11.355 -30.63,-11.355c-25.98,0 -47.13,21.135 -47.13,47.115c0,25.98 21.15,47.115 47.13,47.115c18.735,0 33.54,-9.57 40.515,-25.875h-44.355v-39.765l86.595,0.12l0.645,3.045c4.515,21.435 0.9,52.965 -17.4,75.525c-15.15,18.675 -37.35,28.155 -66,28.155z"/></g></g></g></svg>
